<mxfile host="app.diagrams.net" modified="2020-12-17T16:17:39.682Z" agent="5.0 (Macintosh; Intel Mac OS X 10_15_6) AppleWebKit/605.1.15 (KHTML, like Gecko) Version/14.0.1 Safari/605.1.15" etag="b4fYAb-GjhZ1Cr5kVRdp" version="14.0.4" type="github">
  <diagram id="exG9gQIjR2Y7QJdHkbR8" name="软件架构图">
    <mxGraphModel dx="1038" dy="631" grid="0" gridSize="10" guides="1" tooltips="1" connect="1" arrows="1" fold="1" page="1" pageScale="1" pageWidth="827" pageHeight="1169" math="0" shadow="0">
      <root>
        <mxCell id="0" />
        <mxCell id="1" parent="0" />
        <mxCell id="6MPSQJxafFlT02jxOnF5-15" style="edgeStyle=orthogonalEdgeStyle;rounded=0;orthogonalLoop=1;jettySize=auto;html=1;exitX=0.75;exitY=0;exitDx=0;exitDy=0;entryX=0.75;entryY=1;entryDx=0;entryDy=0;fontSize=16;" parent="1" source="6MPSQJxafFlT02jxOnF5-7" target="6MPSQJxafFlT02jxOnF5-10" edge="1">
          <mxGeometry relative="1" as="geometry" />
        </mxCell>
        <mxCell id="6MPSQJxafFlT02jxOnF5-7" value="数据层" style="rounded=0;whiteSpace=wrap;html=1;align=right;horizontal=0;verticalAlign=top;fontSize=16;fillColor=#bac8d3;strokeColor=#23445d;" parent="1" vertex="1">
          <mxGeometry x="80" y="600" width="520" height="80" as="geometry" />
        </mxCell>
        <mxCell id="6MPSQJxafFlT02jxOnF5-11" style="edgeStyle=orthogonalEdgeStyle;rounded=0;orthogonalLoop=1;jettySize=auto;html=1;exitX=0;exitY=0.3;exitDx=0;exitDy=0;entryX=1;entryY=0.3;entryDx=0;entryDy=0;fontSize=16;strokeColor=#CC6600;" parent="1" source="6MPSQJxafFlT02jxOnF5-3" target="6MPSQJxafFlT02jxOnF5-4" edge="1">
          <mxGeometry relative="1" as="geometry" />
        </mxCell>
        <mxCell id="6MPSQJxafFlT02jxOnF5-3" value="主数据库" style="shape=datastore;whiteSpace=wrap;html=1;fillColor=#fad9d5;strokeColor=#ae4132;" parent="1" vertex="1">
          <mxGeometry x="360" y="610" width="130" height="60" as="geometry" />
        </mxCell>
        <mxCell id="6MPSQJxafFlT02jxOnF5-12" style="edgeStyle=orthogonalEdgeStyle;rounded=0;orthogonalLoop=1;jettySize=auto;html=1;exitX=1;exitY=0.7;exitDx=0;exitDy=0;entryX=0;entryY=0.7;entryDx=0;entryDy=0;fontSize=16;strokeColor=#CC6600;" parent="1" source="6MPSQJxafFlT02jxOnF5-4" target="6MPSQJxafFlT02jxOnF5-3" edge="1">
          <mxGeometry relative="1" as="geometry" />
        </mxCell>
        <mxCell id="6MPSQJxafFlT02jxOnF5-4" value="从数据库" style="shape=datastore;whiteSpace=wrap;html=1;fillColor=#f5f5f5;strokeColor=#666666;fontColor=#333333;" parent="1" vertex="1">
          <mxGeometry x="170" y="610" width="130" height="60" as="geometry" />
        </mxCell>
        <mxCell id="6MPSQJxafFlT02jxOnF5-8" value="外部接入" style="rounded=0;whiteSpace=wrap;html=1;fontSize=16;align=left;verticalAlign=top;fillColor=#fad7ac;strokeColor=#b46504;" parent="1" vertex="1">
          <mxGeometry x="610" y="360" width="120" height="320" as="geometry" />
        </mxCell>
        <mxCell id="6MPSQJxafFlT02jxOnF5-2" value="视频&lt;br&gt;服务器" style="html=1;shadow=0;dashed=0;shape=mxgraph.bootstrap.rrect;rSize=5;strokeColor=#343A40;strokeWidth=1;fillColor=none;fontColor=#343A40;whiteSpace=wrap;align=center;verticalAlign=middle;spacingLeft=0;fontStyle=0;fontSize=16;spacing=5;" parent="1" vertex="1">
          <mxGeometry x="630" y="410" width="80" height="40" as="geometry" />
        </mxCell>
        <mxCell id="6MPSQJxafFlT02jxOnF5-9" value="DCS&lt;br&gt;网络" style="html=1;shadow=0;dashed=0;shape=mxgraph.bootstrap.rrect;rSize=5;strokeColor=#343A40;strokeWidth=1;fillColor=none;fontColor=#343A40;whiteSpace=wrap;align=center;verticalAlign=middle;spacingLeft=0;fontStyle=0;fontSize=16;spacing=5;horizontal=1;" parent="1" vertex="1">
          <mxGeometry x="630" y="530" width="80" height="40" as="geometry" />
        </mxCell>
        <mxCell id="6MPSQJxafFlT02jxOnF5-14" style="edgeStyle=orthogonalEdgeStyle;rounded=0;orthogonalLoop=1;jettySize=auto;html=1;exitX=0.25;exitY=1;exitDx=0;exitDy=0;entryX=0.25;entryY=0;entryDx=0;entryDy=0;fontSize=16;" parent="1" source="6MPSQJxafFlT02jxOnF5-10" target="6MPSQJxafFlT02jxOnF5-7" edge="1">
          <mxGeometry relative="1" as="geometry" />
        </mxCell>
        <mxCell id="6MPSQJxafFlT02jxOnF5-10" value="服务层" style="rounded=0;whiteSpace=wrap;html=1;align=right;horizontal=0;verticalAlign=top;fontSize=16;fillColor=#b1ddf0;strokeColor=#10739e;" parent="1" vertex="1">
          <mxGeometry x="80" y="360" width="520" height="220" as="geometry" />
        </mxCell>
        <mxCell id="6MPSQJxafFlT02jxOnF5-17" value="java、netty、websocket，restful" style="rounded=0;whiteSpace=wrap;html=1;fontSize=16;align=center;fillColor=#60a917;strokeColor=#2D7600;fontColor=#ffffff;dashed=1;" parent="1" vertex="1">
          <mxGeometry x="90" y="540" width="500" height="30" as="geometry" />
        </mxCell>
        <mxCell id="6MPSQJxafFlT02jxOnF5-18" value="" style="rounded=0;whiteSpace=wrap;html=1;fontSize=16;align=center;fillColor=#1ba1e2;strokeColor=#006EAF;dashed=1;fontColor=#ffffff;" parent="1" vertex="1">
          <mxGeometry x="90" y="480" width="500" height="50" as="geometry" />
        </mxCell>
        <mxCell id="6MPSQJxafFlT02jxOnF5-19" value="消息总线" style="rounded=1;whiteSpace=wrap;html=1;fontSize=16;align=center;fillColor=#e1d5e7;strokeColor=#9673a6;" parent="1" vertex="1">
          <mxGeometry x="110" y="488.5" width="90" height="35" as="geometry" />
        </mxCell>
        <mxCell id="6MPSQJxafFlT02jxOnF5-20" value="任务调度" style="rounded=1;whiteSpace=wrap;html=1;fontSize=16;align=center;fillColor=#e1d5e7;strokeColor=#9673a6;" parent="1" vertex="1">
          <mxGeometry x="295" y="488.5" width="90" height="35" as="geometry" />
        </mxCell>
        <mxCell id="6MPSQJxafFlT02jxOnF5-21" value="流程引擎" style="rounded=1;whiteSpace=wrap;html=1;fontSize=16;align=center;fillColor=#e1d5e7;strokeColor=#9673a6;" parent="1" vertex="1">
          <mxGeometry x="470" y="488.5" width="90" height="35" as="geometry" />
        </mxCell>
        <mxCell id="6MPSQJxafFlT02jxOnF5-22" value="业务服务" style="rounded=0;whiteSpace=wrap;html=1;fontSize=16;align=center;fillColor=#d5e8d4;strokeColor=#82b366;dashed=1;verticalAlign=top;horizontal=0;" parent="1" vertex="1">
          <mxGeometry x="120" y="370" width="470" height="100" as="geometry" />
        </mxCell>
        <mxCell id="6MPSQJxafFlT02jxOnF5-23" value="业务系统" style="rounded=0;whiteSpace=wrap;html=1;align=right;horizontal=0;verticalAlign=top;fontSize=16;fillColor=#b0e3e6;strokeColor=#0e8088;" parent="1" vertex="1">
          <mxGeometry x="80" y="230" width="650" height="120" as="geometry" />
        </mxCell>
        <mxCell id="6MPSQJxafFlT02jxOnF5-24" value="审批服务" style="rounded=1;whiteSpace=wrap;html=1;fontSize=16;align=center;fillColor=#cce5ff;strokeColor=#36393d;" parent="1" vertex="1">
          <mxGeometry x="160" y="375" width="90" height="35" as="geometry" />
        </mxCell>
        <mxCell id="6MPSQJxafFlT02jxOnF5-25" value="仓储服务" style="rounded=1;whiteSpace=wrap;html=1;fontSize=16;align=center;fillColor=#cce5ff;strokeColor=#36393d;" parent="1" vertex="1">
          <mxGeometry x="160" y="430" width="90" height="35" as="geometry" />
        </mxCell>
        <mxCell id="6MPSQJxafFlT02jxOnF5-26" value="出库服务" style="rounded=1;whiteSpace=wrap;html=1;fontSize=16;align=center;fillColor=#cce5ff;strokeColor=#36393d;" parent="1" vertex="1">
          <mxGeometry x="267" y="375" width="90" height="35" as="geometry" />
        </mxCell>
        <mxCell id="6MPSQJxafFlT02jxOnF5-27" value="入库服务" style="rounded=1;whiteSpace=wrap;html=1;fontSize=16;align=center;fillColor=#cce5ff;strokeColor=#36393d;" parent="1" vertex="1">
          <mxGeometry x="373" y="375" width="90" height="35" as="geometry" />
        </mxCell>
        <mxCell id="6MPSQJxafFlT02jxOnF5-28" value="领用服务" style="rounded=1;whiteSpace=wrap;html=1;fontSize=16;align=center;fillColor=#cce5ff;strokeColor=#36393d;" parent="1" vertex="1">
          <mxGeometry x="480" y="375" width="90" height="35" as="geometry" />
        </mxCell>
        <mxCell id="6MPSQJxafFlT02jxOnF5-29" value="化验属性&lt;br&gt;服务" style="rounded=1;whiteSpace=wrap;html=1;fontSize=16;align=center;fillColor=#cce5ff;strokeColor=#36393d;" parent="1" vertex="1">
          <mxGeometry x="267" y="430" width="90" height="35" as="geometry" />
        </mxCell>
        <mxCell id="6MPSQJxafFlT02jxOnF5-30" value="接入服务" style="rounded=1;whiteSpace=wrap;html=1;fontSize=16;align=center;fillColor=#cce5ff;strokeColor=#36393d;" parent="1" vertex="1">
          <mxGeometry x="480" y="430" width="90" height="35" as="geometry" />
        </mxCell>
        <mxCell id="6MPSQJxafFlT02jxOnF5-31" value="报表分析&lt;br&gt;服务" style="rounded=1;whiteSpace=wrap;html=1;fontSize=16;align=center;fillColor=#cce5ff;strokeColor=#36393d;" parent="1" vertex="1">
          <mxGeometry x="373" y="430" width="90" height="35" as="geometry" />
        </mxCell>
        <mxCell id="6MPSQJxafFlT02jxOnF5-34" value="移动APP" style="rounded=1;whiteSpace=wrap;html=1;fontSize=16;align=center;fillColor=#ffff88;strokeColor=#36393d;" parent="1" vertex="1">
          <mxGeometry x="120" y="245" width="90" height="35" as="geometry" />
        </mxCell>
        <mxCell id="6MPSQJxafFlT02jxOnF5-35" value="OA系统" style="rounded=1;whiteSpace=wrap;html=1;fontSize=16;align=center;fillColor=#ffff88;strokeColor=#36393d;" parent="1" vertex="1">
          <mxGeometry x="267" y="245" width="90" height="35" as="geometry" />
        </mxCell>
        <mxCell id="6MPSQJxafFlT02jxOnF5-36" value="生产管理系统" style="rounded=1;whiteSpace=wrap;html=1;fontSize=16;align=center;fillColor=#ffff88;strokeColor=#36393d;" parent="1" vertex="1">
          <mxGeometry x="400" y="245" width="110" height="35" as="geometry" />
        </mxCell>
        <mxCell id="6MPSQJxafFlT02jxOnF5-37" value="销售系统" style="rounded=1;whiteSpace=wrap;html=1;fontSize=16;align=center;fillColor=#ffff88;strokeColor=#36393d;" parent="1" vertex="1">
          <mxGeometry x="190" y="305" width="90" height="35" as="geometry" />
        </mxCell>
        <mxCell id="6MPSQJxafFlT02jxOnF5-38" value="决策分析系统" style="rounded=1;whiteSpace=wrap;html=1;fontSize=16;align=center;fillColor=#ffff88;strokeColor=#36393d;" parent="1" vertex="1">
          <mxGeometry x="590" y="245" width="110" height="35" as="geometry" />
        </mxCell>
        <mxCell id="6MPSQJxafFlT02jxOnF5-39" value="安全监控系统" style="rounded=1;whiteSpace=wrap;html=1;fontSize=16;align=center;fillColor=#ffff88;strokeColor=#36393d;" parent="1" vertex="1">
          <mxGeometry x="510" y="305" width="110" height="35" as="geometry" />
        </mxCell>
      </root>
    </mxGraphModel>
  </diagram>
</mxfile>
